<svg width="29" height="22" viewBox="0 0 29 22" fill="none" xmlns="http://www.w3.org/2000/svg">
<path d="M14.5 16.3047C15.375 16.3047 16.3047 15.9766 17.0703 15.375L28.5 6.51562V18.875C28.5 20.3516 27.2969 21.5 25.875 21.5H3.125C1.64844 21.5 0.5 20.3516 0.5 18.875V6.51562L11.875 15.375C12.6406 15.9766 13.5703 16.3047 14.5 16.3047ZM1.375 4.98438C0.828125 4.54688 0.5 3.89062 0.5 3.125C0.5 1.70312 1.64844 0.5 3.125 0.5H25.875C27.2969 0.5 28.5 1.70312 28.5 3.125C28.5 3.89062 28.1172 4.54688 27.5703 4.98438L15.9766 14.0078C15.1016 14.6641 13.8438 14.6641 12.9688 14.0078L1.375 4.98438Z" fill="#5A7184"/>
</svg>
