<svg width="178" height="104" viewBox="0 0 178 104" fill="none" xmlns="http://www.w3.org/2000/svg">
<path d="M5.60263 86.5947H10.1486L15.3676 103.352H11.3459L9.18272 94.8695C8.75764 93.1976 8.24755 91.2328 7.84609 89.464H7.74218C7.33127 91.2328 6.86605 93.1952 6.44097 94.8695L4.26364 103.352H0.383636L5.60263 86.5947ZM3.8362 96.4116H11.8536V99.3659H3.8362V96.4116Z" fill="#F1E8DB"/>
<path d="M17.1127 100.896L19.2924 98.5462C20.2512 99.7412 21.3848 100.386 22.4923 100.386C24.1973 100.386 25.0735 99.642 25.0735 97.3466V89.7684H18.5273V86.5874H28.8732V97.6559C28.8732 100.941 27.2555 103.661 22.6175 103.661C20.7589 103.661 18.5745 102.936 17.1127 100.896Z" fill="#F1E8DB"/>
<path d="M33.3979 86.5947H44.5065V89.7757H37.1905V93.1362H43.4061V96.3172H37.1905V100.174H44.764V103.355H33.3979V86.5971V86.5947Z" fill="#F1E8DB"/>
<path d="M48.2402 86.5947H54.1983C57.7477 86.5947 60.6689 87.8298 60.6689 91.8161C60.6689 95.8023 57.7477 97.3232 54.1983 97.3232H52.0399V103.352H48.2402V86.5947ZM53.889 94.3146C55.8821 94.3146 56.9495 93.4573 56.9495 91.8161C56.9495 90.1748 55.8797 89.6057 53.889 89.6057H52.0399V94.3146H53.889ZM56.1253 93.8942L61.4719 103.352H57.2282L53.4993 96.3243L56.1253 93.8942Z" fill="#F1E8DB"/>
<path d="M64.6268 86.5947H68.4124V100.174H75.8725V103.355H64.6268V86.5971V86.5947Z" fill="#F1E8DB"/>
<path d="M83.1365 97.6869L77.7381 86.5947H81.7881L83.4908 90.6188C83.9843 91.9105 84.485 93.122 85.0116 94.461H85.1155C85.635 93.1244 86.1735 91.9129 86.6883 90.6188L88.3697 86.5947H92.3253L86.9268 97.6869V103.352H83.1342V97.6869H83.1365Z" fill="#F1E8DB"/>
<path d="M20.7235 71.4129H20.5606C18.6855 71.4129 17.2969 70.95 16.3925 70.0479C15.6746 73.1722 12.3873 75.2575 8.61357 75.2575C3.9826 75.2575 0.324585 71.8545 0.324585 67.3628V60.9253H3.56697V67.0606C3.56697 70.1636 5.39716 72.2465 8.68442 72.2465C11.1853 72.2465 13.5704 70.6714 13.5704 68.5176C13.5704 67.2896 12.529 66.4796 11.4167 66.4796C11.2325 66.4796 11.046 66.5032 10.8618 66.5505V63.7261C10.8618 63.7025 11.3246 63.7025 12.274 63.7025C14.6119 63.7025 16.35 64.7675 17.4599 66.8976C18.0148 67.9627 18.8272 68.3098 20.2158 68.3098H20.7259V71.4129H20.7235ZM8.2192 80.0726H5.32396V77.4112H8.2192V80.0726ZM12.5739 80.0726H9.70224V77.4112H12.5739V80.0726Z" fill="#F1E8DB"/>
<path d="M25.3734 71.4126H20.4189V68.3096H25.3734V71.4126Z" fill="#F1E8DB"/>
<path d="M29.9572 71.4126H25.0027V68.3096H29.9572V71.4126Z" fill="#F1E8DB"/>
<path d="M34.5409 71.4126H29.5864V68.3096H34.5409V71.4126Z" fill="#F1E8DB"/>
<path d="M39.1246 71.4126H34.1701V68.3096H39.1246V71.4126Z" fill="#F1E8DB"/>
<path d="M43.7084 71.4126H38.7539V68.3096H43.7084V71.4126Z" fill="#F1E8DB"/>
<path d="M48.2921 71.4126H43.3376V68.3096H48.2921V71.4126Z" fill="#F1E8DB"/>
<path d="M52.8758 71.4126H47.9213V68.3096H52.8758V71.4126Z" fill="#F1E8DB"/>
<path d="M59.2425 66.9422C59.2425 68.1702 58.8954 69.188 58.2224 70.0004C57.4572 70.9497 56.3945 71.4126 55.0272 71.4126H51.9714V68.3095H54.3565C55.4452 68.3095 56.0002 67.5444 56.0002 66.0401L56.2245 54.6504H59.4669L59.2425 66.9422Z" fill="#F1E8DB"/>
<path d="M71.0502 71.4129H67.4607C66.927 73.961 64.8441 75.2338 61.1625 75.2338V72.6173C63.2926 72.6173 64.3576 71.5971 64.3576 69.5614V60.9253H67.6213V68.3122H71.0479V71.4152L71.0502 71.4129Z" fill="#F1E8DB"/>
<path d="M86.6789 71.4121H70.1245V68.309H83.2287C83.0893 65.6924 81.0986 63.6544 78.3899 63.6544C77.0013 63.6544 75.4262 64.3723 74.5004 65.3217C74.1769 64.8824 73.6432 64.1645 72.8804 63.1231C74.4556 61.4794 76.3779 60.6694 78.6237 60.6694C83.9253 60.693 86.6812 64.3038 86.6812 70.347V71.4121H86.6789ZM80.4043 75.2543H77.509V72.5692H80.4043V75.2543Z" fill="#F1E8DB"/>
<path d="M92.3844 53.3799H89.1514V52.1992H89.1443C89.0759 51.9914 89.0522 51.7835 89.0522 51.597C89.0522 50.5555 89.7938 49.7432 90.788 49.7432C91.5295 49.7432 92.0396 50.1139 92.3395 50.8318L91.2981 51.3183C91.206 50.9948 91.043 50.8318 90.788 50.8318C90.4408 50.8318 90.2543 51.0633 90.2543 51.5261C90.2543 51.8733 90.37 52.1047 90.5778 52.1732H92.3844V53.3776V53.3799ZM92.3017 71.4126H89.0593V54.6552H92.3017V71.4126Z" fill="#F1E8DB"/>
<path d="M153.603 0V0.0802922L153.579 0.0330615L111.851 21.771L111.842 21.7663V103.782L134.704 80.9204V32.9127L115.996 23.7925L153.603 4.20117V86.5668L136.387 103.782H178V19.0481L153.603 0Z" fill="#D7CFC4"/>
<path d="M153.603 0V0.0802922L153.579 0.0330615L153.603 4.20117V86.5668L178 103.782V19.0481L153.603 0Z" fill="#F1E8DB"/>
</svg>
