<svg width="23" height="21" viewBox="0 0 23 21" fill="none" xmlns="http://www.w3.org/2000/svg">
<path d="M22.5 10.5391C22.5 10.8516 22.1875 11.125 21.875 11.125C21.7188 11.125 21.5625 11.0859 21.4453 10.9688L20 9.67969V18.625C20 19.6797 19.1406 20.5 18.125 20.5H15C13.9453 20.5 13.125 19.6797 13.125 18.625V14.25H9.375V18.625C9.375 19.6797 8.51562 20.5 7.5 20.5H4.375C3.32031 20.5 2.5 19.6797 2.5 18.625V9.67969L1.01562 10.9688C0.898438 11.0859 0.742188 11.125 0.625 11.125C0.273438 11.125 0 10.8516 0 10.5391C0 10.3438 0.0390625 10.1875 0.195312 10.0312L10.8203 0.65625C10.9375 0.578125 11.0938 0.539062 11.25 0.539062C11.3672 0.539062 11.5234 0.578125 11.6406 0.65625L22.2656 10.0312C22.4219 10.1875 22.5 10.3438 22.5 10.5391ZM18.75 8.625C18.75 8.625 18.75 8.625 18.75 8.58594L11.25 1.98438L3.71094 8.58594C3.71094 8.625 3.75 8.625 3.75 8.625V18.625C3.75 18.9766 4.02344 19.25 4.375 19.25H7.5C7.8125 19.25 8.125 18.9766 8.125 18.625V14.25C8.125 13.5859 8.67188 13 9.375 13H13.125C13.7891 13 14.375 13.5859 14.375 14.25V18.625C14.375 18.9766 14.6484 19.25 15 19.25H18.125C18.4375 19.25 18.75 18.9766 18.75 18.625V8.625Z" fill="white"/>
</svg>
