<svg width="14" height="15" viewBox="0 0 14 15" fill="none" xmlns="http://www.w3.org/2000/svg">
<path d="M7 6.12598C7.90625 6.12598 8.65625 6.87598 8.65625 7.78223C8.65625 8.71973 7.90625 9.46973 7 9.46973C6.0625 9.46973 5.3125 8.71973 5.3125 7.78223C5.3125 6.87598 6.0625 6.12598 7 6.12598ZM10.875 4.84473C11.1562 5.50098 11.0938 7.06348 11.0938 7.78223C11.0938 8.53223 11.1562 10.0947 10.875 10.751C10.7188 11.1885 10.375 11.5322 9.9375 11.6885C9.28125 11.9697 7.71875 11.9072 7 11.9072C6.25 11.9072 4.6875 11.9697 4.03125 11.6885C3.59375 11.5322 3.25 11.1885 3.09375 10.751C2.84375 10.0947 2.875 8.53223 2.875 7.78223C2.875 7.06348 2.84375 5.50098 3.09375 4.84473C3.25 4.40723 3.59375 4.06348 4.03125 3.90723C4.6875 3.62598 6.25 3.68848 7 3.68848C7.71875 3.68848 9.28125 3.62598 9.9375 3.90723C10.375 4.06348 10.7188 4.40723 10.875 4.84473ZM7 10.3447V10.376C8.40625 10.376 9.5625 9.21973 9.5625 7.81348V7.78223C9.5625 6.37598 8.40625 5.21973 7 5.21973C5.5625 5.21973 4.4375 6.37598 4.4375 7.78223C4.4375 9.21973 5.5625 10.3447 7 10.3447ZM9.65625 5.71973C9.96875 5.71973 10.25 5.46973 10.25 5.12598C10.25 4.78223 9.96875 4.53223 9.65625 4.53223C9.3125 4.53223 9.0625 4.78223 9.0625 5.12598C9.0625 5.46973 9.3125 5.71973 9.65625 5.71973ZM12.5 0.782227C13.3125 0.782227 14 1.46973 14 2.28223V13.2822C14 14.126 13.3125 14.7822 12.5 14.7822H1.5C0.65625 14.7822 0 14.126 0 13.2822V2.28223C0 1.46973 0.65625 0.782227 1.5 0.782227H12.5ZM11.9375 9.84473C12 9.03223 12 6.56348 11.9375 5.75098C11.9062 4.93848 11.7188 4.21973 11.1562 3.65723C10.5625 3.06348 9.84375 2.87598 9.0625 2.84473C8.21875 2.78223 5.75 2.78223 4.9375 2.84473C4.125 2.87598 3.40625 3.06348 2.84375 3.62598C2.25 4.21973 2.0625 4.93848 2.03125 5.71973C1.96875 6.56348 1.96875 9.03223 2.03125 9.84473C2.0625 10.6572 2.25 11.376 2.84375 11.9385C3.40625 12.5322 4.125 12.7197 4.9375 12.751C5.75 12.8135 8.21875 12.8135 9.0625 12.751C9.84375 12.7197 10.5625 12.5322 11.1562 11.9385C11.7188 11.376 11.9062 10.6572 11.9375 9.84473Z" fill="#F1E9DD"/>
</svg>
