<svg width="16" height="15" viewBox="0 0 16 15" fill="none" xmlns="http://www.w3.org/2000/svg">
<path d="M8 0C12.125 0 15.5 3.375 15.5 7.5C15.5 11.6562 12.125 15 8 15C3.84375 15 0.5 11.6562 0.5 7.5C0.5 3.375 3.84375 0 8 0ZM14.5 5C13.6562 2.8125 11.75 1.15625 9.40625 0.65625C10.2812 1.5 10.9688 3.0625 11.2812 5H14.5ZM11 7.5C11 6.8125 10.9375 6.15625 10.8438 5.5H5.125C5.03125 6.15625 5 6.8125 5 7.5C5 8.21875 5.03125 8.875 5.125 9.5H10.8438C10.9375 8.875 11 8.21875 11 7.5ZM8 14.5C9.09375 14.5 10.3125 12.75 10.7812 10H5.1875C5.65625 12.75 6.875 14.5 8 14.5ZM5.1875 5H10.7812C10.3125 2.28125 9.09375 0.5 8 0.5C6.875 0.5 5.65625 2.28125 5.1875 5ZM6.5625 0.65625C4.21875 1.15625 2.3125 2.8125 1.46875 5H4.6875C5 3.0625 5.6875 1.5 6.5625 0.65625ZM1.28125 5.5C1.09375 6.15625 1 6.8125 1 7.5C1 8.21875 1.09375 8.875 1.28125 9.5H4.625C4.53125 8.875 4.5 8.21875 4.5 7.5C4.5 6.8125 4.53125 6.15625 4.625 5.5H1.28125ZM1.46875 10C2.3125 12.2188 4.21875 13.875 6.5625 14.375C5.6875 13.5312 5 11.9688 4.6875 10H1.46875ZM9.40625 14.375C11.75 13.875 13.6562 12.2188 14.5 10H11.2812C10.9688 11.9688 10.2812 13.5312 9.40625 14.375ZM14.6875 9.5C14.875 8.875 15 8.21875 15 7.5C15 6.8125 14.875 6.15625 14.6875 5.5H11.3438C11.4375 6.15625 11.5 6.8125 11.5 7.5C11.5 8.21875 11.4375 8.875 11.3438 9.5H14.6875Z" fill="#897964"/>
</svg>
