<svg width="150" height="87" viewBox="0 0 150 87" fill="none" xmlns="http://www.w3.org/2000/svg">
<path d="M34.6733 0.832275V0.89894L34.6537 0.859725L0.00784305 18.9081L0 18.9042V86.9999L18.9817 68.0182V28.1588L3.4489 20.5865L34.6733 4.32039V72.7063L20.3797 86.9999H54.9295V16.6474L34.6733 0.832275Z" fill="#5A7184"/>
<path d="M34.6733 0.832275V0.89894L34.6537 0.859725L34.6733 4.32039V72.7063L54.9295 86.9999V16.6474L34.6733 0.832275Z" fill="#8A9FA8"/>
<path d="M69.7733 71.3374H73.9452L78.7348 86.716H75.044L73.0588 78.9314C72.6687 77.397 72.2006 75.5938 71.8322 73.9706H71.7368C71.3597 75.5938 70.9328 77.3948 70.5427 78.9314L68.5445 86.716H64.9837L69.7733 71.3374ZM68.1522 80.3466H75.51V83.0578H68.1522V80.3466Z" fill="#5A7184"/>
<path d="M80.3364 84.4623L82.3367 82.3059C83.2166 83.4025 84.2569 83.9942 85.2733 83.9942C86.838 83.9942 87.6421 83.3115 87.6421 81.2049V74.2503H81.6345V71.3311H91.1292V81.4888C91.1292 84.5035 89.6446 87.0001 85.3882 87.0001C83.6826 87.0001 81.6779 86.3348 80.3364 84.4623Z" fill="#5A7184"/>
<path d="M95.2816 71.3374H105.476V74.2567H98.7621V77.3406H104.466V80.2599H98.7621V83.799H105.712V86.7182H95.2816V71.3396V71.3374Z" fill="#5A7184"/>
<path d="M108.903 71.3374H114.371C117.628 71.3374 120.309 72.4709 120.309 76.1291C120.309 79.7874 117.628 81.1831 114.371 81.1831H112.39V86.716H108.903V71.3374ZM114.087 78.4221C115.916 78.4221 116.895 77.6354 116.895 76.1291C116.895 74.6229 115.914 74.1006 114.087 74.1006H112.39V78.4221H114.087ZM116.139 78.0363L121.046 86.716H117.151L113.729 80.2664L116.139 78.0363Z" fill="#5A7184"/>
<path d="M123.941 71.3374H127.415V83.799H134.261V86.7182H123.941V71.3396V71.3374Z" fill="#5A7184"/>
<path d="M140.928 81.5169L135.973 71.3374H139.69L141.253 75.0304C141.706 76.2158 142.165 77.3276 142.648 78.5564H142.744C143.221 77.3298 143.715 76.218 144.187 75.0304L145.73 71.3374H149.36L144.406 81.5169V86.716H140.926V81.5169H140.928Z" fill="#5A7184"/>
<path d="M83.6499 57.4047H83.5004C81.7796 57.4047 80.5053 56.9799 79.6753 56.152C79.0164 59.0193 75.9996 60.9329 72.5364 60.9329C68.2865 60.9329 64.9294 57.81 64.9294 53.6879V47.78H67.905V53.4105C67.905 56.2582 69.5846 58.1697 72.6014 58.1697C74.8965 58.1697 77.0854 56.7242 77.0854 54.7477C77.0854 53.6207 76.1297 52.8774 75.1089 52.8774C74.9399 52.8774 74.7687 52.899 74.5996 52.9424V50.3504C74.5996 50.3287 75.0244 50.3287 75.8956 50.3287C78.0412 50.3287 79.6362 51.3061 80.6548 53.2609C81.1641 54.2384 81.9097 54.557 83.184 54.557H83.6521V57.4047H83.6499ZM72.1745 65.3519H69.5175V62.9094H72.1745V65.3519ZM76.1708 65.3519H73.5355V62.9094H76.1708V65.3519Z" fill="#5A7184"/>
<path d="M87.9173 57.4044H83.3704V54.5566H87.9173V57.4044Z" fill="#5A7184"/>
<path d="M92.1238 57.4044H87.577V54.5566H92.1238V57.4044Z" fill="#5A7184"/>
<path d="M96.3304 57.4044H91.7836V54.5566H96.3304V57.4044Z" fill="#5A7184"/>
<path d="M100.537 57.4044H95.9901V54.5566H100.537V57.4044Z" fill="#5A7184"/>
<path d="M104.744 57.4044H100.197V54.5566H104.744V57.4044Z" fill="#5A7184"/>
<path d="M108.95 57.4044H104.403V54.5566H108.95V57.4044Z" fill="#5A7184"/>
<path d="M113.157 57.4044H108.61V54.5566H113.157V57.4044Z" fill="#5A7184"/>
<path d="M119 53.3021C119 54.4291 118.681 55.3632 118.063 56.1087C117.361 56.9799 116.386 57.4047 115.131 57.4047H112.327V54.557H114.516C115.515 54.557 116.024 53.8548 116.024 52.4743L116.23 42.0217H119.205L119 53.3021Z" fill="#5A7184"/>
<path d="M129.836 57.4047H126.542C126.052 59.7431 124.14 60.9113 120.762 60.9113V58.51C122.716 58.51 123.694 57.5737 123.694 55.7056V47.78H126.689V54.5591H129.834V57.4068L129.836 57.4047Z" fill="#5A7184"/>
<path d="M144.178 57.4046H128.986V54.5569H141.012C140.884 52.1556 139.057 50.2853 136.571 50.2853C135.297 50.2853 133.852 50.9441 133.002 51.8153C132.705 51.4122 132.215 50.7534 131.515 49.7977C132.961 48.2893 134.725 47.5459 136.786 47.5459C141.651 47.5676 144.181 50.8813 144.181 56.4272V57.4046H144.178ZM138.42 60.9307H135.763V58.4666H138.42V60.9307Z" fill="#5A7184"/>
<path d="M149.414 40.8556H146.448V39.772H146.441C146.378 39.5813 146.356 39.3906 146.356 39.2193C146.356 38.2636 147.037 37.5181 147.949 37.5181C148.63 37.5181 149.098 37.8583 149.373 38.5172L148.418 38.9636C148.333 38.6667 148.183 38.5172 147.949 38.5172C147.631 38.5172 147.46 38.7296 147.46 39.1543C147.46 39.4729 147.566 39.6853 147.757 39.7481H149.414V40.8534V40.8556ZM149.339 57.4045H146.363V42.0259H149.339V57.4045Z" fill="#5A7184"/>
</svg>
