<svg width="107" height="63" viewBox="0 0 107 63" fill="none" xmlns="http://www.w3.org/2000/svg">
<path d="M3.76513 51.8552H6.48734L9.61257 61.8899H7.2043L5.90896 56.8103C5.65441 55.8091 5.34896 54.6326 5.10856 53.5734H5.04633C4.80027 54.6326 4.52169 55.8077 4.26715 56.8103L2.96331 61.8899H0.639893L3.76513 51.8552ZM2.70736 57.7338H7.50834V59.5029H2.70736V57.7338Z" fill="#F1E8DB"/>
<path d="M10.658 60.4191L11.9632 59.012C12.5373 59.7276 13.2161 60.1136 13.8794 60.1136C14.9004 60.1136 15.425 59.6682 15.425 58.2936V53.7557H11.505V51.8508H17.7003V58.4789C17.7003 60.4459 16.7317 62.075 13.9543 62.075C12.8414 62.075 11.5333 61.6409 10.658 60.4191Z" fill="#F1E8DB"/>
<path d="M20.4097 51.855H27.0618V53.7598H22.6808V55.7721H26.4028V57.677H22.6808V59.9863H27.2159V61.8911H20.4097V51.8564V51.855Z" fill="#F1E8DB"/>
<path d="M29.2976 51.855H32.8655C34.9909 51.855 36.7402 52.5946 36.7402 54.9816C36.7402 57.3687 34.9909 58.2794 32.8655 58.2794H31.573V61.8897H29.2976V51.855ZM32.6802 56.4778C33.8737 56.4778 34.5129 55.9645 34.5129 54.9816C34.5129 53.9988 33.8723 53.658 32.6802 53.658H31.573V56.4778H32.6802ZM34.0194 56.2261L37.221 61.8897H34.6798L32.4469 57.6812L34.0194 56.2261Z" fill="#F1E8DB"/>
<path d="M39.1101 51.855H41.377V59.9863H45.8442V61.8911H39.1101V51.8564V51.855Z" fill="#F1E8DB"/>
<path d="M50.1941 58.4972L46.9614 51.855H49.3867L50.4063 54.2647C50.7018 55.0382 51.0016 55.7636 51.317 56.5655H51.3792C51.6903 55.7651 52.0127 55.0396 52.321 54.2647L53.3279 51.855H55.6965L52.4638 58.4972V61.8897H50.1927V58.4972H50.1941Z" fill="#F1E8DB"/>
<path d="M12.8198 42.7636H12.7222C11.5994 42.7636 10.7679 42.4864 10.2263 41.9462C9.79636 43.8171 7.82789 45.0658 5.5681 45.0658C2.79499 45.0658 0.604492 43.028 0.604492 40.3383V36.4834H2.5461V40.1573C2.5461 42.0155 3.64205 43.2628 5.61053 43.2628C7.10809 43.2628 8.53637 42.3195 8.53637 41.0298C8.53637 40.2945 7.91274 39.8094 7.24668 39.8094C7.13638 39.8094 7.02466 39.8236 6.91436 39.8519V38.1606C6.91436 38.1464 7.19153 38.1464 7.76001 38.1464C9.16 38.1464 10.2008 38.7842 10.8654 40.0597C11.1978 40.6975 11.6842 40.9054 12.5157 40.9054H12.8212V42.7636H12.8198ZM5.33194 47.9492H3.59821V46.3555H5.33194V47.9492ZM7.9396 47.9492H6.22002V46.3555H7.9396V47.9492Z" fill="#F1E8DB"/>
<path d="M15.6043 42.7634H12.6375V40.9053H15.6043V42.7634Z" fill="#F1E8DB"/>
<path d="M18.3489 42.7634H15.3821V40.9053H18.3489V42.7634Z" fill="#F1E8DB"/>
<path d="M21.094 42.7634H18.1272V40.9053H21.094V42.7634Z" fill="#F1E8DB"/>
<path d="M23.8387 42.7634H20.8718V40.9053H23.8387V42.7634Z" fill="#F1E8DB"/>
<path d="M26.5836 42.7634H23.6167V40.9053H26.5836V42.7634Z" fill="#F1E8DB"/>
<path d="M29.3284 42.7634H26.3616V40.9053H29.3284V42.7634Z" fill="#F1E8DB"/>
<path d="M32.0733 42.7634H29.1064V40.9053H32.0733V42.7634Z" fill="#F1E8DB"/>
<path d="M35.8859 40.0866C35.8859 40.822 35.678 41.4315 35.275 41.9179C34.8168 42.4864 34.1804 42.7636 33.3616 42.7636H31.5317V40.9054H32.96C33.6119 40.9054 33.9443 40.4473 33.9443 39.5464L34.0786 32.7261H36.0202L35.8859 40.0866Z" fill="#F1E8DB"/>
<path d="M42.9564 42.7636H40.8069C40.4873 44.2894 39.24 45.0516 37.0354 45.0516V43.4848C38.3109 43.4848 38.9487 42.8739 38.9487 41.6549V36.4834H40.9031V40.9068H42.955V42.765L42.9564 42.7636Z" fill="#F1E8DB"/>
<path d="M52.3152 42.7635H42.4021V40.9053H50.2491C50.1657 39.3384 48.9736 38.118 47.3516 38.118C46.5201 38.118 45.5768 38.5479 45.0225 39.1164C44.8288 38.8534 44.5092 38.4235 44.0524 37.7999C44.9956 36.8156 46.1467 36.3306 47.4916 36.3306C50.6663 36.3447 52.3166 38.5069 52.3166 42.1257V42.7635H52.3152ZM48.5578 45.0643H46.8241V43.4564H48.5578V45.0643Z" fill="#F1E8DB"/>
<path d="M55.7317 31.9651H53.7957V31.2581H53.7915C53.7505 31.1336 53.7363 31.0092 53.7363 30.8974C53.7363 30.2738 54.1804 29.7874 54.7757 29.7874C55.2198 29.7874 55.5252 30.0094 55.7048 30.4393L55.0812 30.7306C55.026 30.5368 54.9284 30.4393 54.7757 30.4393C54.5678 30.4393 54.4561 30.5779 54.4561 30.855C54.4561 31.0629 54.5254 31.2015 54.6499 31.2425H55.7317V31.9637V31.9651ZM55.6822 42.7635H53.7406V32.7288H55.6822V42.7635Z" fill="#F1E8DB"/>
<path d="M92.3906 0V0.0480806L92.3765 0.0197979L67.3887 13.0369L67.3831 13.0341V62.1469L81.0733 48.4567V19.7088L69.8705 14.2474L92.3906 2.51574V51.8379L82.0816 62.1469H107V11.4064L92.3906 0Z" fill="#D7CFC4"/>
<path d="M92.3904 0V0.0480806L92.3762 0.0197979L92.3904 2.51574V51.8379L107 62.1469V11.4064L92.3904 0Z" fill="#F1E8DB"/>
</svg>
