<svg width="111" height="63" viewBox="0 0 111 63" fill="none" xmlns="http://www.w3.org/2000/svg">
<path d="M25.6359 1V1.04797L25.6218 1.01975L0.693143 14.0061L0.6875 14.0032V63L14.3454 49.3421V20.6622L3.16908 15.2137L25.6359 3.50979V52.7153L15.3512 63H40.2108V12.3794L25.6359 1Z" fill="#5A7184"/>
<path d="M25.6359 1V1.04797L25.6218 1.01975L25.6359 3.50979V52.7153L40.2108 63V12.3794L25.6359 1Z" fill="#8A9FA8"/>
<path d="M53.696 51.7302H56.6978L60.144 62.7956H57.4884L56.06 57.1943C55.7793 56.0902 55.4425 54.7928 55.1774 53.6249H55.1088C54.8374 54.7928 54.5302 56.0887 54.2496 57.1943L52.8118 62.7956H50.2498L53.696 51.7302ZM52.5296 58.2126H57.8237V60.1633H52.5296V58.2126Z" fill="#5A7184"/>
<path d="M61.2964 61.1739L62.7357 59.6223C63.3688 60.4113 64.1173 60.837 64.8487 60.837C65.9745 60.837 66.5531 60.3458 66.5531 58.8301V53.8261H62.2305V51.7256H69.0621V59.0344C69.0621 61.2035 67.9939 62.9999 64.9313 62.9999C63.7041 62.9999 62.2616 62.5212 61.2964 61.1739Z" fill="#5A7184"/>
<path d="M72.0499 51.7302H79.3852V53.8307H74.5543V56.0497H78.6586V58.1502H74.5543V60.6967H79.5552V62.7971H72.0499V51.7318V51.7302Z" fill="#5A7184"/>
<path d="M81.8506 51.7302H85.7849C88.1286 51.7302 90.0576 52.5458 90.0576 55.178C90.0576 57.8102 88.1286 58.8145 85.7849 58.8145H84.3596V62.7956H81.8506V51.7302ZM85.5806 56.8278C86.8967 56.8278 87.6016 56.2618 87.6016 55.178C87.6016 54.0942 86.8952 53.7184 85.5806 53.7184H84.3596V56.8278H85.5806ZM87.0573 56.5503L90.5878 62.7956H87.7856L85.3233 58.1549L87.0573 56.5503Z" fill="#5A7184"/>
<path d="M92.6711 51.7302H95.1708V60.6967H100.097V62.7971H92.6711V51.7318V51.7302Z" fill="#5A7184"/>
<path d="M104.893 59.0546L101.329 51.7302H104.003L105.127 54.3874C105.453 55.2404 105.784 56.0403 106.132 56.9245H106.2C106.543 56.0419 106.899 55.2419 107.239 54.3874L108.349 51.7302H110.961L107.396 59.0546V62.7956H104.892V59.0546H104.893Z" fill="#5A7184"/>
<path d="M63.6807 41.7052H63.5731C62.335 41.7052 61.4181 41.3996 60.8208 40.8039C60.3468 42.867 58.1761 44.2439 55.6842 44.2439C52.6263 44.2439 50.2108 41.9968 50.2108 39.0309V34.78H52.3518V38.8313C52.3518 40.8803 53.5604 42.2557 55.731 42.2557C57.3824 42.2557 58.9574 41.2156 58.9574 39.7934C58.9574 38.9826 58.2697 38.4477 57.5352 38.4477C57.4136 38.4477 57.2904 38.4633 57.1688 38.4945V36.6294C57.1688 36.6139 57.4744 36.6139 58.1013 36.6139C59.6451 36.6139 60.7928 37.3171 61.5257 38.7237C61.8921 39.427 62.4285 39.6562 63.3455 39.6562H63.6823V41.7052H63.6807ZM55.4238 47.4235H53.512V45.666H55.4238V47.4235ZM58.2993 47.4235H56.4031V45.666H58.2993V47.4235Z" fill="#5A7184"/>
<path d="M66.7511 41.705H63.4795V39.656H66.7511V41.705Z" fill="#5A7184"/>
<path d="M69.7779 41.705H66.5063V39.656H69.7779V41.705Z" fill="#5A7184"/>
<path d="M72.8047 41.705H69.5331V39.656H72.8047V41.705Z" fill="#5A7184"/>
<path d="M75.8314 41.705H72.5598V39.656H75.8314V41.705Z" fill="#5A7184"/>
<path d="M78.8581 41.705H75.5865V39.656H78.8581V41.705Z" fill="#5A7184"/>
<path d="M81.8849 41.705H78.6133V39.656H81.8849V41.705Z" fill="#5A7184"/>
<path d="M84.9116 41.705H81.64V39.656H84.9116V41.705Z" fill="#5A7184"/>
<path d="M89.1157 38.7533C89.1157 39.5642 88.8864 40.2363 88.442 40.7727C87.9368 41.3995 87.235 41.7052 86.3322 41.7052H84.3143V39.6562H85.8893C86.6082 39.6562 86.9746 39.1509 86.9746 38.1576L87.1228 30.6367H89.2638L89.1157 38.7533Z" fill="#5A7184"/>
<path d="M96.9127 41.7052H94.5424C94.19 43.3878 92.8146 44.2283 90.3835 44.2283V42.5005C91.7901 42.5005 92.4934 41.8269 92.4934 40.4827V34.78H94.6484V39.6578H96.9111V41.7068L96.9127 41.7052Z" fill="#5A7184"/>
<path d="M107.233 41.7052H96.3014V39.6562H104.954C104.862 37.9284 103.548 36.5826 101.759 36.5826C100.842 36.5826 99.8022 37.0567 99.1909 37.6835C98.9773 37.3935 98.6249 36.9195 98.1212 36.2318C99.1613 35.1464 100.431 34.6116 101.914 34.6116C105.414 34.6272 107.234 37.0115 107.234 41.0019V41.7052H107.233ZM103.089 44.2423H101.178V42.4693H103.089V44.2423Z" fill="#5A7184"/>
<path d="M111 29.7977H108.865V29.018H108.861C108.815 28.8808 108.8 28.7435 108.8 28.6204C108.8 27.9327 109.289 27.3962 109.946 27.3962C110.436 27.3962 110.772 27.6411 110.97 28.1151L110.283 28.4363C110.222 28.2227 110.114 28.1151 109.946 28.1151C109.717 28.1151 109.594 28.2679 109.594 28.5736C109.594 28.8028 109.67 28.9556 109.807 29.0008H111V29.7961V29.7977ZM110.946 41.7051H108.804V30.6398H110.946V41.7051Z" fill="#5A7184"/>
</svg>
