<svg width="773" height="846" viewBox="0 0 773 846" fill="none" xmlns="http://www.w3.org/2000/svg">
<path d="M296.341 4.45276L296.276 3.95697L296.275 3.95715L296.341 4.45276ZM140.467 57.7699L140.716 58.2037L140.719 58.2021L140.467 57.7699ZM348.86 1L348.861 0.499999L348.86 0.500001L348.86 1ZM460.073 16.1761L460.209 15.695L460.207 15.6943L460.073 16.1761ZM608.33 89.8886L608.632 89.4907L608.631 89.4897L608.33 89.8886ZM715.934 214.67L715.496 214.911L715.498 214.915L715.934 214.67ZM768.614 371.65L769.11 371.586L769.109 371.583L768.614 371.65ZM756.747 535.937L756.265 535.803L756.263 535.81L756.747 535.937ZM605.603 759.966L605.304 759.565L605.296 759.571L605.603 759.966ZM560.22 790.96L559.964 790.531L559.963 790.532L560.22 790.96ZM535.685 803.567L535.896 804.02L535.901 804.018L535.685 803.567ZM486.533 822.276L486.39 821.797L486.387 821.798L486.533 822.276ZM413.808 839.219L413.727 838.725L413.722 838.726L413.808 839.219ZM347.738 845L347.419 844.615L346.258 845.575L347.763 845.499L347.738 845ZM565.066 618.743L565.482 619.02L565.066 618.743ZM577.299 600.496L576.892 600.206L576.885 600.216L577.299 600.496ZM626.05 500.446L625.57 500.305V500.305L626.05 500.446ZM635.03 388.031L635.526 387.967L635.526 387.963L635.03 388.031ZM598.948 281.557L598.512 281.801L598.514 281.805L598.948 281.557ZM525.181 196.683L524.878 197.081L524.878 197.081L525.181 196.683ZM424.312 147.06L424.179 147.542L424.182 147.543L424.312 147.06ZM206.938 175.405L207.182 175.841L207.19 175.836L206.938 175.405ZM121.143 250.482L120.743 250.183L120.742 250.185L121.143 250.482ZM72.7936 349.006L72.3123 348.871L72.3117 348.873L72.7936 349.006ZM99.8951 567.815L99.4604 568.062L99.4624 568.066L99.8951 567.815ZM130.124 591.904L129.976 592.382L129.98 592.383L130.124 591.904ZM170.215 586.605L169.977 586.165L169.964 586.172L169.952 586.18L170.215 586.605ZM193.787 557.571L193.307 557.429L193.787 557.571ZM189.859 520.36L190.298 520.121H190.298L189.859 520.36ZM187.935 516.827L188.374 516.588L188.369 516.579L188.364 516.57L187.935 516.827ZM165.404 453.232L165.899 453.161L165.899 453.159L165.404 453.232ZM167.248 386.264L167.738 386.364L167.738 386.363L167.248 386.264ZM191.303 325.479L190.878 325.215L190.878 325.216L191.303 325.479ZM236.044 275.936L236.35 276.332L236.357 276.327L236.044 275.936ZM236.846 275.294L237.159 275.684L237.167 275.678L237.174 275.671L236.846 275.294ZM244.864 269.272L244.609 268.842L244.601 268.847L244.593 268.852L244.864 269.272ZM256.33 262.446L256.586 262.876L256.59 262.874L256.33 262.446ZM326.57 238.357L326.627 238.854L326.629 238.854L326.57 238.357ZM398.734 243.336L398.866 242.854L398.861 242.852L398.734 243.336ZM462.318 275.455L462.008 275.847L462.012 275.85L462.318 275.455ZM511.871 331.662L512.307 331.418L512.301 331.408L511.871 331.662ZM533.921 395.9L533.426 395.975L533.427 395.977L533.921 395.9ZM532.317 461.743L531.827 461.642L531.827 461.643L532.317 461.743ZM508.262 523.411L508.689 523.672L508.691 523.669L508.262 523.411ZM464.162 572.794L464.446 573.205L464.458 573.197L464.469 573.188L464.162 572.794ZM460.484 575.315L460.202 574.902L460.484 575.315ZM452.536 580.823L452.244 580.417L452.536 580.823ZM442.994 587.087L443.245 587.519L443.25 587.516L442.994 587.087ZM318.712 609.168L318.799 608.676L318.797 608.675L318.712 609.168ZM299.548 605.876L299.633 605.383L299.272 605.321L299.104 605.647L299.548 605.876ZM290.648 623.14L291.09 623.373L291.093 623.369L290.648 623.14ZM244.143 678.866L243.834 678.472L243.824 678.48L243.815 678.488L244.143 678.866ZM242.94 679.91L242.612 679.532L242.61 679.534L242.94 679.91ZM236.285 684.647L236.038 684.212L236.028 684.218L236.285 684.647ZM224.899 691.472L225.156 691.902L225.156 691.901L224.899 691.472ZM159.631 714.437L159.698 714.933L159.699 714.933L159.631 714.437ZM90.9949 711.707L90.8877 712.196L90.8888 712.196L90.9949 711.707ZM29.1745 685.129L29.4552 684.715L29.455 684.715L29.1745 685.129ZM-16.9302 635.666L-17.3654 635.912L-17.3627 635.917L-16.9302 635.666ZM-57.0212 314.479L-57.503 314.345L-57.5036 314.347L-57.0212 314.479ZM15.1426 168.499L15.5414 168.801L15.5425 168.799L15.1426 168.499ZM331.374 490.893V491.393L331.488 490.406L331.374 490.893ZM289.519 458.212L289.964 457.984L289.957 457.97L289.95 457.958L289.519 458.212ZM330.492 490.893V490.393L330.369 491.378L330.492 490.893ZM349.496 493.302L349.494 493.802H349.495L349.496 493.302ZM381.568 485.674L381.794 486.12L381.802 486.116L381.81 486.112L381.568 485.674ZM383.172 484.791L383.413 485.229L383.424 485.222L383.172 484.791ZM393.516 476.279L393.188 475.901L393.163 475.923L393.14 475.949L393.516 476.279ZM409.552 391.084L409.995 390.851L409.99 390.843L409.552 391.084ZM408.67 389.478L409.108 389.238L409.102 389.227L409.096 389.216L408.67 389.478ZM314.055 365.389L313.806 364.956L313.802 364.958L314.055 365.389ZM308.843 368.44L308.591 368.009L308.568 368.022L308.548 368.037L308.843 368.44ZM305.556 370.849L305.26 370.446L305.25 370.454L305.24 370.462L305.556 370.849ZM281.501 411.56L281.992 411.656L281.993 411.65L281.501 411.56ZM296.275 3.95715C241.254 11.2898 188.22 29.4302 140.216 57.3376L140.719 58.2021C188.608 30.3609 241.517 12.2636 296.407 4.94838L296.275 3.95715ZM348.86 0.500001C331.276 0.52524 313.712 1.67993 296.276 3.95697L296.406 4.94855C313.799 2.67706 331.32 1.52518 348.861 1.5L348.86 0.500001ZM460.207 15.6943C423.944 5.63282 386.49 0.52186 348.861 0.5L348.86 1.5C386.399 1.52181 423.763 6.62052 459.939 16.6579L460.207 15.6943ZM608.631 89.4897C564.159 55.8804 513.828 30.8558 460.209 15.695L459.937 16.6572C513.436 31.7843 563.655 56.753 608.028 90.2875L608.631 89.4897ZM716.372 214.429C689.562 165.708 652.861 123.148 608.632 89.4907L608.027 90.2865C652.144 123.86 688.753 166.312 715.496 214.911L716.372 214.429ZM769.109 371.583C761.649 316.32 743.75 262.984 716.37 214.424L715.498 214.915C742.817 263.364 760.675 316.579 768.118 371.717L769.109 371.583ZM757.228 536.072C772.152 482.594 776.193 426.658 769.11 371.586L768.118 371.714C775.184 426.653 771.153 482.454 756.265 535.803L757.228 536.072ZM605.903 760.366C680.191 704.858 733.529 625.8 757.23 536.065L756.263 535.81C732.619 625.327 679.412 704.192 605.304 759.565L605.903 760.366ZM560.476 791.39C576.246 781.996 591.42 771.633 605.91 760.36L605.296 759.571C590.838 770.818 575.699 781.158 559.964 790.531L560.476 791.39ZM535.901 804.018C552.667 795.984 558.455 792.604 560.478 791.389L559.963 790.532C557.976 791.725 552.218 795.09 535.469 803.116L535.901 804.018ZM486.676 822.755C503.52 817.727 519.971 811.465 535.896 804.02L535.473 803.114C519.592 810.539 503.186 816.783 486.39 821.797L486.676 822.755ZM413.889 839.712C438.503 835.692 462.82 830.026 486.679 822.754L486.387 821.798C462.571 829.057 438.297 834.712 413.727 838.725L413.889 839.712ZM347.738 845C347.763 845.499 347.763 845.499 347.764 845.499C347.764 845.499 347.765 845.499 347.765 845.499C347.767 845.499 347.769 845.499 347.772 845.499C347.777 845.499 347.786 845.498 347.797 845.498C347.819 845.496 347.853 845.495 347.897 845.492C347.985 845.488 348.116 845.481 348.288 845.472C348.631 845.454 349.137 845.428 349.788 845.392C351.091 845.322 352.973 845.217 355.294 845.081C359.936 844.809 366.333 844.41 373.352 843.903C387.381 842.889 403.923 841.443 413.893 839.711L413.722 838.726C403.808 840.447 387.315 841.891 373.28 842.905C366.267 843.412 359.875 843.811 355.236 844.083C352.916 844.219 351.035 844.323 349.734 844.394C349.084 844.429 348.578 844.456 348.235 844.474C348.064 844.483 347.933 844.489 347.845 844.494C347.801 844.496 347.768 844.498 347.746 844.499C347.735 844.499 347.727 844.5 347.721 844.5C347.718 844.5 347.716 844.5 347.715 844.5C347.714 844.5 347.714 844.501 347.713 844.501C347.713 844.501 347.713 844.501 347.738 845ZM564.65 618.465C544.905 648.077 527.63 673.984 496.782 707.799C465.929 741.62 421.49 783.36 347.419 844.615L348.057 845.385C422.144 784.117 466.623 742.343 497.521 708.473C528.424 674.598 545.734 648.638 565.482 619.02L564.65 618.465ZM576.885 600.216C572.624 606.507 568.588 612.56 564.65 618.465L565.482 619.02C569.42 613.115 573.454 607.065 577.713 600.776L576.885 600.216ZM625.57 500.305C615.008 536.085 598.556 569.85 576.892 600.206L577.706 600.787C599.434 570.34 615.935 536.475 626.529 500.588L625.57 500.305ZM634.534 388.094C639.363 425.715 636.31 463.931 625.57 500.305L626.529 500.588C637.309 464.081 640.373 425.726 635.526 387.967L634.534 388.094ZM598.514 281.805C617.226 314.591 629.455 350.679 634.535 388.098L635.526 387.963C630.429 350.418 618.158 314.207 599.383 281.309L598.514 281.805ZM524.878 197.081C554.975 219.954 580.041 248.794 598.512 281.801L599.385 281.313C580.847 248.186 555.69 219.241 525.483 196.285L524.878 197.081ZM424.182 147.543C460.64 157.354 494.841 174.179 524.878 197.081L525.484 196.286C495.344 173.305 461.025 156.422 424.442 146.577L424.182 147.543ZM207.19 175.836C272.768 137.539 350.995 127.339 424.179 147.542L424.445 146.578C351.001 126.303 272.496 136.54 206.686 174.973L207.19 175.836ZM121.544 250.782C144.518 220.056 173.698 194.522 207.182 175.841L206.695 174.968C173.088 193.717 143.801 219.345 120.743 250.183L121.544 250.782ZM73.2748 349.142C83.2728 313.694 99.6294 280.363 121.545 250.78L120.742 250.185C98.7537 279.865 82.3432 313.306 72.3123 348.871L73.2748 349.142ZM100.33 567.568C62.6363 501.268 52.899 422.653 73.2754 349.14L72.3117 348.873C51.8643 422.642 61.6355 501.531 99.4604 568.062L100.33 567.568ZM130.271 591.427C117.648 587.529 106.956 579.008 100.328 567.565L99.4624 568.066C106.217 579.727 117.112 588.41 129.976 592.382L130.271 591.427ZM169.952 586.18C158.081 593.529 143.636 595.439 130.268 591.425L129.98 592.383C143.623 596.479 158.364 594.53 170.478 587.03L169.952 586.18ZM193.307 557.429C189.658 569.735 181.262 580.076 169.977 586.165L170.452 587.045C181.971 580.83 190.541 570.274 194.266 557.714L193.307 557.429ZM189.42 520.599C195.558 531.869 196.956 545.124 193.307 557.429L194.266 557.714C197.991 545.153 196.563 531.624 190.298 520.121L189.42 520.599ZM187.496 517.066L189.42 520.599L190.298 520.121L188.374 516.588L187.496 517.066ZM164.909 453.303C168.139 475.854 175.821 497.536 187.506 517.083L188.364 516.57C176.747 497.137 169.11 475.581 165.899 453.161L164.909 453.303ZM166.758 386.165C162.271 408.269 161.646 430.985 164.909 453.304L165.899 453.159C162.652 430.955 163.274 408.355 167.738 386.364L166.758 386.165ZM190.878 325.216C179.282 343.934 171.114 364.574 166.758 386.165L167.738 386.363C172.071 364.888 180.195 344.36 191.728 325.743L190.878 325.216ZM235.738 275.541C217.959 289.301 202.768 306.121 190.878 325.215L191.727 325.744C203.554 306.751 218.665 290.019 236.35 276.332L235.738 275.541ZM236.533 274.904L235.732 275.546L236.357 276.327L237.159 275.684L236.533 274.904ZM244.593 268.852C241.761 270.678 239.062 272.705 236.518 274.917L237.174 275.671C239.682 273.491 242.343 271.493 245.135 269.692L244.593 268.852ZM256.075 262.017L244.609 268.842L245.12 269.701L256.586 262.876L256.075 262.017ZM326.512 237.861C301.571 240.749 277.544 248.989 256.071 262.019L256.59 262.874C277.94 249.919 301.829 241.726 326.627 238.854L326.512 237.861ZM398.861 242.852C375.27 236.662 350.726 234.969 326.511 237.861L326.629 238.854C350.72 235.976 375.137 237.661 398.607 243.819L398.861 242.852ZM462.628 275.062C443.737 260.166 422.056 249.214 398.866 242.854L398.601 243.818C421.662 250.143 443.223 261.034 462.008 275.847L462.628 275.062ZM512.301 331.408C499.459 309.641 482.601 290.518 462.624 275.059L462.012 275.85C481.888 291.232 498.662 310.258 511.44 331.916L512.301 331.408ZM534.415 395.824C530.956 373.203 523.467 351.388 512.307 331.418L511.434 331.906C522.536 351.772 529.985 373.473 533.426 395.975L534.415 395.824ZM532.807 461.844C537.289 440.111 537.833 417.749 534.415 395.823L533.427 395.977C536.827 417.784 536.285 440.027 531.827 461.642L532.807 461.844ZM508.691 523.669C520.185 504.585 528.341 483.676 532.807 461.843L531.827 461.643C527.384 483.365 519.269 504.167 507.834 523.153L508.691 523.669ZM464.469 573.188C482.08 559.499 497.063 542.721 508.689 523.672L507.836 523.151C496.272 542.097 481.371 558.784 463.855 572.399L464.469 573.188ZM460.766 575.727C462.056 574.846 463.314 573.986 464.446 573.205L463.878 572.382C462.748 573.162 461.492 574.02 460.202 574.902L460.766 575.727ZM452.828 581.229C454.969 579.69 457.941 577.659 460.766 575.727L460.202 574.902C457.38 576.83 454.397 578.87 452.244 580.417L452.828 581.229ZM443.25 587.516C446.229 585.742 449.689 583.486 452.828 581.229L452.244 580.417C449.129 582.657 445.693 584.898 442.738 586.657L443.25 587.516ZM318.625 609.661C361.473 617.189 405.599 609.349 443.245 587.519L442.743 586.654C405.301 608.366 361.414 616.163 318.799 608.676L318.625 609.661ZM299.464 606.369L318.627 609.661L318.797 608.675L299.633 605.383L299.464 606.369ZM291.093 623.369L299.993 606.105L299.104 605.647L290.204 622.911L291.093 623.369ZM244.451 679.259C263.745 664.118 279.636 645.076 291.09 623.373L290.206 622.906C278.818 644.485 263.017 663.418 243.834 678.472L244.451 679.259ZM243.268 680.287L244.47 679.243L243.815 678.488L242.612 679.532L243.268 680.287ZM236.532 685.082C238.935 683.717 241.193 682.11 243.27 680.285L242.61 679.534C240.584 681.313 238.382 682.881 236.038 684.212L236.532 685.082ZM225.156 691.901L236.542 685.076L236.028 684.218L224.642 691.044L225.156 691.901ZM159.699 714.933C182.839 711.725 205.098 703.893 225.156 691.902L224.642 691.043C204.7 702.966 182.568 710.753 159.562 713.942L159.699 714.933ZM90.8888 712.196C113.492 717.102 136.777 718.028 159.698 714.933L159.564 713.942C136.758 717.021 113.591 716.1 91.1009 711.219L90.8888 712.196ZM28.8939 685.543C47.6826 698.286 68.7216 707.331 90.8877 712.196L91.1021 711.219C69.0601 706.381 48.1388 697.387 29.4552 684.715L28.8939 685.543ZM-17.3627 635.917C-5.86963 655.734 9.94221 672.698 28.894 685.543L29.455 684.715C10.6279 671.954 -5.08003 655.102 -16.4977 635.415L-17.3627 635.917ZM-57.5036 314.347C-87.0289 422.64 -72.6007 538.23 -17.3654 635.912L-16.4949 635.42C-71.6005 537.967 -85.9948 422.648 -56.5388 314.61L-57.5036 314.347ZM14.7439 168.198C-18.3283 211.914 -42.8418 261.502 -57.503 314.345L-56.5394 314.612C-41.9118 261.89 -17.4547 212.416 15.5414 168.801L14.7439 168.198ZM140.219 57.336C91.3046 85.367 48.6101 123.089 14.7428 168.199L15.5425 168.799C49.3282 123.798 91.9198 86.167 140.716 58.2037L140.219 57.336ZM331.488 490.406C313.566 486.227 298.382 474.371 289.964 457.984L289.075 458.441C297.627 475.089 313.052 487.134 331.261 491.38L331.488 490.406ZM330.492 491.393H331.374V490.393H330.492V491.393ZM349.497 492.802C343.129 492.782 336.788 491.978 330.616 490.409L330.369 491.378C336.621 492.968 343.044 493.782 349.494 493.802L349.497 492.802ZM381.343 485.227C371.464 490.21 360.557 492.804 349.496 492.802L349.495 493.802C360.713 493.804 371.775 491.173 381.794 486.12L381.343 485.227ZM382.931 484.353L381.327 485.236L381.81 486.112L383.413 485.229L382.931 484.353ZM393.14 475.949C390.205 479.282 386.755 482.122 382.92 484.359L383.424 485.222C387.351 482.931 390.885 480.023 393.891 476.61L393.14 475.949ZM409.109 391.317C424.089 419.789 417.49 454.845 393.188 475.901L393.843 476.657C418.496 455.296 425.19 419.734 409.994 390.851L409.109 391.317ZM408.232 389.719L409.114 391.325L409.99 390.843L409.108 389.238L408.232 389.719ZM314.304 365.823C346.93 347.095 388.511 357.681 408.244 389.74L409.096 389.216C389.08 356.697 346.902 345.958 313.806 364.956L314.304 365.823ZM309.096 368.872L314.308 365.821L313.802 364.958L308.591 368.009L309.096 368.872ZM305.851 371.253L309.139 368.844L308.548 368.037L305.26 370.446L305.851 371.253ZM281.993 411.65C284.894 395.761 293.362 381.431 305.872 371.237L305.24 370.462C292.545 380.806 283.953 395.348 281.009 411.47L281.993 411.65ZM289.95 457.958C281.7 444.03 278.867 427.545 281.992 411.656L281.011 411.463C277.838 427.593 280.715 444.328 289.089 458.467L289.95 457.958Z" fill="url(#paint0_linear_125210_92328)"/>
<defs>
<linearGradient id="paint0_linear_125210_92328" x1="503" y1="547.5" x2="471.5" y2="728.5" gradientUnits="userSpaceOnUse">
<stop stop-color="#E5EFFF"/>
<stop offset="1" stop-color="#E5EFFF" stop-opacity="0"/>
</linearGradient>
</defs>
</svg>
