<svg width="23" height="23" viewBox="0 0 23 23" fill="none" xmlns="http://www.w3.org/2000/svg">
<path d="M22.457 17.3789L21.4258 21.7188C21.2969 22.3633 20.7812 22.793 20.1367 22.793C9.30859 22.793 0.5 13.9414 0.5 3.11328C0.5 2.46875 0.886719 1.95312 1.53125 1.82422L5.82812 0.792969C6.47266 0.664062 7.11719 1.00781 7.375 1.56641L9.39453 6.25C9.60938 6.80859 9.48047 7.45312 9.00781 7.79688L6.6875 9.73047C8.14844 12.6953 10.5547 15.1016 13.5625 16.5625L15.4531 14.2422C15.7969 13.7695 16.4414 13.6406 17 13.8555L21.6836 15.875C22.2852 16.1328 22.5859 16.7773 22.457 17.3789Z" fill="#897964"/>
</svg>
