<svg width="25" height="25" viewBox="0 0 25 25" fill="none" xmlns="http://www.w3.org/2000/svg">
<path d="M12.25 5.22656C14.1641 5.22656 15.9688 5.99219 17.3359 7.35938C18.7031 8.72656 19.5234 10.5312 19.5234 12.4453C19.5234 16.4375 16.1875 19.6641 12.25 19.6641H12.1953C10.9375 19.6641 9.67969 19.3359 8.53125 18.6797L8.3125 18.5156L5.57812 19.2266L6.28906 16.5469L6.125 16.2734C5.41406 15.125 5.03125 13.8125 5.03125 12.4453C5.03125 8.45312 8.25781 5.22656 12.25 5.22656ZM16.4609 15.5625C16.625 15.0156 16.625 14.5781 16.5703 14.5234C16.5156 14.4141 16.4062 14.3594 16.1875 14.25C15.9688 14.1406 14.875 13.5938 14.7109 13.5391C14.4922 13.4844 14.3281 13.4297 14.2188 13.6484C14.0547 13.8672 13.6719 14.3594 13.5078 14.5234C13.3984 14.6328 13.2891 14.6875 13.0703 14.5781C11.7578 13.9219 10.9375 13.4297 10.1172 11.9531C9.89844 11.5703 10.3359 11.625 10.7188 10.8047C10.8281 10.6406 10.7734 10.5312 10.7188 10.4219C10.6641 10.3125 10.2266 9.21875 10.0625 8.83594C9.89844 8.39844 9.67969 8.45312 9.57031 8.45312C9.46094 8.45312 9.29688 8.45312 9.13281 8.45312C9.02344 8.45312 8.75 8.50781 8.58594 8.72656C8.36719 8.94531 7.82031 9.4375 7.82031 10.5312C7.82031 11.5703 8.58594 12.6094 8.69531 12.7734C8.80469 12.8828 10.2266 15.0703 12.4141 16.0547C13.7812 16.6016 14.3281 16.6562 14.9844 16.5469C15.4219 16.4922 16.2969 16.0547 16.4609 15.5625ZM21.875 0.25C23.2969 0.25 24.5 1.45312 24.5 2.875V22.125C24.5 23.6016 23.2969 24.75 21.875 24.75H2.625C1.14844 24.75 0 23.6016 0 22.125V2.875C0 1.45312 1.14844 0.25 2.625 0.25H21.875ZM12.1953 21.1406C17.0078 21.1406 21 17.2578 21 12.4453C21 10.1484 20.0156 7.96094 18.375 6.32031C16.7344 4.67969 14.5469 3.75 12.1953 3.75C7.4375 3.75 3.55469 7.6875 3.55469 12.4453C3.55469 13.9766 3.9375 15.4531 4.70312 16.7656L3.5 21.25L8.09375 20.0469C9.35156 20.7578 10.7734 21.1406 12.1953 21.1406Z" fill="#2FB034"/>
</svg>
