<svg width="13" height="13" viewBox="0 0 13 13" fill="none" xmlns="http://www.w3.org/2000/svg">
<path d="M6.875 3.11328C7.83203 3.11328 8.73438 3.49609 9.41797 4.17969C10.1016 4.86328 10.5117 5.76562 10.5117 6.72266C10.5117 8.71875 8.84375 10.332 6.875 10.332H6.84766C6.21875 10.332 5.58984 10.168 5.01562 9.83984L4.90625 9.75781L3.53906 10.1133L3.89453 8.77344L3.8125 8.63672C3.45703 8.0625 3.26562 7.40625 3.26562 6.72266C3.26562 4.72656 4.87891 3.11328 6.875 3.11328ZM8.98047 8.28125C9.0625 8.00781 9.0625 7.78906 9.03516 7.76172C9.00781 7.70703 8.95312 7.67969 8.84375 7.625C8.73438 7.57031 8.1875 7.29688 8.10547 7.26953C7.99609 7.24219 7.91406 7.21484 7.85938 7.32422C7.77734 7.43359 7.58594 7.67969 7.50391 7.76172C7.44922 7.81641 7.39453 7.84375 7.28516 7.78906C6.62891 7.46094 6.21875 7.21484 5.80859 6.47656C5.69922 6.28516 5.91797 6.3125 6.10938 5.90234C6.16406 5.82031 6.13672 5.76562 6.10938 5.71094C6.08203 5.65625 5.86328 5.10938 5.78125 4.91797C5.69922 4.69922 5.58984 4.72656 5.53516 4.72656C5.48047 4.72656 5.39844 4.72656 5.31641 4.72656C5.26172 4.72656 5.125 4.75391 5.04297 4.86328C4.93359 4.97266 4.66016 5.21875 4.66016 5.76562C4.66016 6.28516 5.04297 6.80469 5.09766 6.88672C5.15234 6.94141 5.86328 8.03516 6.95703 8.52734C7.64062 8.80078 7.91406 8.82812 8.24219 8.77344C8.46094 8.74609 8.89844 8.52734 8.98047 8.28125ZM11.6875 0.625C12.3984 0.625 13 1.22656 13 1.9375V11.5625C13 12.3008 12.3984 12.875 11.6875 12.875H2.0625C1.32422 12.875 0.75 12.3008 0.75 11.5625V1.9375C0.75 1.22656 1.32422 0.625 2.0625 0.625H11.6875ZM6.84766 11.0703C9.25391 11.0703 11.25 9.12891 11.25 6.72266C11.25 5.57422 10.7578 4.48047 9.9375 3.66016C9.11719 2.83984 8.02344 2.375 6.84766 2.375C4.46875 2.375 2.52734 4.34375 2.52734 6.72266C2.52734 7.48828 2.71875 8.22656 3.10156 8.88281L2.5 11.125L4.79688 10.5234C5.42578 10.8789 6.13672 11.0703 6.84766 11.0703Z" fill="#5A7184"/>
</svg>
