<svg width="16" height="14" viewBox="0 0 16 14" fill="none" xmlns="http://www.w3.org/2000/svg">
<path d="M14.3438 3.53223C14.3438 3.68848 14.3438 3.81348 14.3438 3.96973C14.3438 8.31348 11.0625 13.2822 5.03125 13.2822C3.15625 13.2822 1.4375 12.751 0 11.8135C0.25 11.8447 0.5 11.876 0.78125 11.876C2.3125 11.876 3.71875 11.3447 4.84375 10.4697C3.40625 10.4385 2.1875 9.50098 1.78125 8.18848C2 8.21973 2.1875 8.25098 2.40625 8.25098C2.6875 8.25098 3 8.18848 3.25 8.12598C1.75 7.81348 0.625 6.50098 0.625 4.90723V4.87598C1.0625 5.12598 1.59375 5.25098 2.125 5.28223C1.21875 4.68848 0.65625 3.68848 0.65625 2.56348C0.65625 1.93848 0.8125 1.37598 1.09375 0.907227C2.71875 2.87598 5.15625 4.18848 7.875 4.34473C7.8125 4.09473 7.78125 3.84473 7.78125 3.59473C7.78125 1.78223 9.25 0.313477 11.0625 0.313477C12 0.313477 12.8438 0.688477 13.4688 1.34473C14.1875 1.18848 14.9062 0.907227 15.5312 0.532227C15.2812 1.31348 14.7812 1.93848 14.0938 2.34473C14.75 2.28223 15.4062 2.09473 15.9688 1.84473C15.5312 2.50098 14.9688 3.06348 14.3438 3.53223Z" fill="#F1E9DD"/>
</svg>
