<svg width="18" height="13" viewBox="0 0 18 13" fill="none" xmlns="http://www.w3.org/2000/svg">
<path d="M17.1562 2.68848C17.5312 4.00098 17.5312 6.81348 17.5312 6.81348C17.5312 6.81348 17.5312 9.59473 17.1562 10.9385C16.9688 11.6885 16.375 12.251 15.6562 12.4385C14.3125 12.7822 9 12.7822 9 12.7822C9 12.7822 3.65625 12.7822 2.3125 12.4385C1.59375 12.251 1 11.6885 0.8125 10.9385C0.4375 9.59473 0.4375 6.81348 0.4375 6.81348C0.4375 6.81348 0.4375 4.00098 0.8125 2.68848C1 1.93848 1.59375 1.34473 2.3125 1.15723C3.65625 0.782227 9 0.782227 9 0.782227C9 0.782227 14.3125 0.782227 15.6562 1.15723C16.375 1.34473 16.9688 1.93848 17.1562 2.68848ZM7.25 9.34473L11.6875 6.81348L7.25 4.28223V9.34473Z" fill="#F1E9DD"/>
</svg>
